{"title":"Fast &amp; Furiokyo Drift(2006)MPEG-4[DaScubaDude]","uid":13539408,"size":1048007594,"categoryP":"video","categoryS":"movies","magnet":"?xt=urn:btih:8519c0ef7cacb4766f34785a4b92ab2ed301cffd&amp;dn=Fast+%26amp%3B+Furiokyo+Drift%282006%29MPEG-4%5BDaScubaDude%5D&amp;tr=udp%3A%2F%2Ftracker.leechers-paradise.org%3A6969&amp;tr=udp%3A%2F%2Fzer0day.ch%3A1337&amp;tr=udp%3A%2F%2Fopen.demonii.com%3A1337&amp;tr=udp%3A%2F%2Ftracker.coppersurfer.tk%3A6969&amp;tr=udp%3A%2F%2Fexodus.desync.com%3A6969","seeders":0,"leechers":0,"uploader":"dascuba","files":1,"time":1455471319,"description":"The Fast and the Furious: Tokyo Drift (2006)\r\nPG-13 | 1h 44min | Action, Crime, Drama | 16 June 2006 (USA)\r\nA teenager becomes a major competitor in the world of drift racing after moving in with his father in Tokyo to avoid a jail sentence in America.\r\nDirector: Justin Lin\r\nWriter: Chris Morgan\r\nStars: Lucas Black, Zachery Ty Bryan, Shad Moss\r\n\r\nGeneral\r\nComplete name                            :F &amp; F Tokyo DriftFAST_AND_FURIOUS_TOKYO_DRIFT_Title1.mp4\r\nFormat                                   : MPEG-4\r\nFormat profile                           : Base Media\r\nCodec ID                                 : isom\r\nFile size                                : 999 MiB\r\nDuration                                 : 1h 44mn\r\nOverall bit rate                         : 1 341 Kbps\r\nMovie name                               : FAST_AND_FURIOUS_TOKYO_DRIFT\r\nGenre                                    : Action\r\nWriting application                      : Lavf54.6.100\r\n\r\nVideo\r\nID                                       : 1\r\nFormat                                   : AVC\r\nFormat/Info                              : Advanced Video Codec\r\nFormat profile                           :   \r\nFormat settings, CABAC                   : No\r\nFormat settings, ReFrames                : 6 frames\r\nCodec ID                                 : avc1\r\nCodec ID/Info                            : Advanced Video Coding\r\nDuration                                 : 1h 44mn\r\nBit rate                                 : 1 206 Kbps\r\nWidth                                    : 720 pixels\r\nHeight                                   : 404 pixels\r\nDisplay aspect ratio                     : 16:9\r\nFrame rate mode                          : Constant\r\nFrame rate                               : 29.970 fps\r\nColor space                              : YUV\r\nChroma subsampling                       : 4:2:0\r\nBit depth                                : 8 bits\r\nScan type                                : Progressive\r\nBits/(Pixel*Frame)                       : 0.138\r\nStream size                              : 899 MiB (90%)\r\n\r\nAudio\r\nID                                       : 2\r\nFormat                                   : AAC\r\nFormat/Info                              : Advanced Audio Codec\r\nFormat profile                           : LC\r\nCodec ID                                 : 40\r\nDuration                                 : 1h 44mn\r\nBit rate mode                            : Constant\r\nBit rate                                 : 128 Kbps\r\nChannel(s)                               : 2 channels\r\nChannel positions                        : Front: L R\r\nSampling rate                            : 44.1 KHz\r\nCompression mode                         : Lossy\r\nStream size                              : 95.4 MiB (10%)","torrent":{"xt":"urn:btih:8519c0ef7cacb4766f34785a4b92ab2ed301cffd","amp;dn":"Fast+%26amp%3B+Furiokyo+Drift%282006%29MPEG-4%5BDaScubaDude%5D","amp;tr":["udp%3A%2F%2Ftracker.leechers-paradise.org%3A6969","udp%3A%2F%2Fzer0day.ch%3A1337","udp%3A%2F%2Fopen.demonii.com%3A1337","udp%3A%2F%2Ftracker.coppersurfer.tk%3A6969","udp%3A%2F%2Fexodus.desync.com%3A6969"],"infoHash":"8519c0ef7cacb4766f34785a4b92ab2ed301cffd","infoHashBuffer":{"type":"Buffer","data":[133,25,192,239,124,172,180,118,111,52,120,90,75,146,171,46,211,1,207,253]},"announce":[],"urlList":[]}}